<?xml version="1.0" ?><svg id="Layer_1" style="enable-background:new 0 0 512 512;" version="1.1" viewBox="0 0 512 512" xml:space="preserve" xmlns="http://www.w3.org/2000/svg" xmlns:xlink="http://www.w3.org/1999/xlink"><rect height="98.116" style="fill:#FFFFFF;" transform="matrix(0.7078 -0.7064 0.7064 0.7078 -265.2963 226.2123)" width="14.961" x="133.329" y="384.753"/><rect height="31.878" style="fill:#FFFFFF;" transform="matrix(0.7079 -0.7063 0.7063 0.7079 -230.3216 240.025)" width="60.104" x="144.974" y="382.529"/><g><g><path d="M414.4,315.399l-45.9-15.505l0.136-0.182c1.091-1.575,1.409-3.56,0.833-5.393c-0.56-1.832-1.954-3.295-3.742-3.969    l-62.143-23.318c8.622-8.739,14.932-19.09,19.31-28.362c0.59-0.732,0.951-1.611,1.163-2.549    c5.274-11.819,7.464-21.225,7.557-21.694c0.533-4.521,0.955-8.479,1.345-12.19c10.47-14.483,25.009-39.927,22.09-66.817    c-3.863-45.453-36.386-83.741-82.832-97.548c-31.63-9.399-56.473-5.127-57.504-4.938c-2.121,0.379-3.893,1.826-4.681,3.825    c-0.788,1.999-0.485,4.264,0.803,5.992l7.771,10.43c-0.546-0.098-1.091-0.182-1.651-0.243    c-32.07-3.598-48.717,17.731-53.065,29.562c-0.682,1.826-0.454,3.855,0.59,5.492c1.045,1.636,2.803,2.681,4.742,2.84l1.424,0.106    c-9.044,10.24-14.088,21.995-15.058,35.1c-1.81,24.466,11.129,47.819,21.191,62.039c0.427,6.969,1.233,16.664,2.879,26.943    c0.046,0.224,1.667,6.984,5.39,16.192c0.13,1.011,0.571,1.914,1.149,2.736c4.431,10.321,11.417,22.96,21.654,33.297l-61.58,23.108    c-1.788,0.674-3.181,2.135-3.742,3.969c-0.576,1.832-0.257,3.817,0.833,5.393l0.136,0.182l-45.854,15.489    c-29.888,9.801-49.975,37.53-49.975,68.994v89.618c0,3.423,2.787,6.203,6.211,6.203h404.237c3.423,0,6.211-2.779,6.211-6.203    v-89.618C464.329,352.913,444.243,325.184,414.4,315.399z M353.595,299.575c-0.064,0.091-0.061,0.207-0.12,0.301    c-0.065,0.105-0.17,0.164-0.229,0.275l-18.663,34.091c-1.394,2.545-0.849,5.711,1.333,7.635l13.103,11.544l-56.095,89.982    l27.936-156.633l33.021,12.39L353.595,299.575z M275.977,467.792h-39.952l-25.423-142.537    c13.582,7.187,28.643,10.987,44.301,10.987c16.67,0,32.561-4.271,46.736-12.325L275.977,467.792z M195.414,138.207    c7.619,11.089,24.192,26.881,56.868,26.881c2.575,0,4.878-1.591,5.801-3.999c0.879-2.34,0.273-4.984-1.529-6.704    c13.346,7.597,33.206,12.899,62.488,9.694c1.734,13.264-1.042,26.765-3.437,35.211l-11.389,2.379l0.102-1.764    c0.167-2.908-1.697-5.536-4.499-6.333c0,0-20.42-5.809-29.827-8.877c-10.649-3.461-25.843-1.152-28.267-0.704l-31.434,9.066    c-2.445,0.714-3.93,2.918-4.188,5.395l-8.427-4.349C195.561,188.473,185.875,160.217,195.414,138.207z M191.854,212.722    c-0.442-2.784-0.813-5.541-1.14-8.242l15.913,8.214l0.943,15.84l-11.827-3.279C193.186,218.378,191.993,213.333,191.854,212.722z     M218.873,209.561c0.059-0.518-0.02-1.015-0.091-1.524l-0.266-4.443l25.919-7.513c3.817-0.622,15.134-1.734,21.708,0.417    c6.666,2.173,18.784,5.703,25.495,7.643l-2.015,34.697l-23.935,6.931c-3.787,0.628-15.058,1.758-21.692-0.409    c-6.03-1.962-16.497-5.037-23.405-7.044L218.873,209.561z M303.468,214.507l9.43-1.969c0.466,1.138,1.13,2.223,2.222,2.933    c0.989,0.638,2.094,0.915,3.198,0.947c-0.87,3.021-2.304,7.451-4.44,12.588l-11.325,1.275L303.468,214.507z M188.945,90.754    c2.015-1.575,2.863-4.226,2.121-6.68c-0.727-2.446-2.893-4.196-5.454-4.401l-5.665-0.447c5.378-7.059,16.194-16.186,35.614-13.96    c0.697,0.084,1.394,0.219,2.091,0.356l2.545,0.432c1.455,0.197,2.863,0.485,4.15,0.75c4.15,0.856,8.059,1.666,11.452-0.75    c1.363-0.969,2.272-2.446,2.53-4.09c0.257-1.651-0.167-3.333-1.166-4.673l-9.694-13.005c9.437-0.243,24.313,0.462,41.204,5.476    c41.537,12.346,70.577,46.377,74.137,88.073c1.682,15.489-4.287,31.153-11.209,43.56c0.727-8.074,0.56-16.944-1.469-25.623    c-0.666-2.84-3.196-4.787-6.044-4.787c-0.287,0-0.576,0.016-0.879,0.06c-66.941,9.566-79.938-27.669-80.454-29.214    c-0.833-2.651-2.681-4.499-6.135-4.348c-2.787,0.098-5.165,2.037-5.817,4.749c-2.651,10.952,1.864,21.42,6.953,29.085    c-28.115-5.613-35.826-26.646-36.19-27.669c-0.727-2.143-2.575-3.719-4.818-4.098c-2.197-0.363-4.515,0.492-5.923,2.28    c-11.165,14.209-12.907,31.971-11.543,46.991c-6.666-11.937-12.421-26.903-11.316-41.87    C168.995,113,176.054,100.828,188.945,90.754z M202.42,239.974l5.929,1.644l0.108,1.818c0.151,2.621,1.954,4.862,4.484,5.59    c5.801,1.674,19.86,5.733,27.206,8.135c4.363,1.424,9.513,1.864,14.225,1.864c6.741,0,12.604-0.909,14.028-1.166l27.798-8.105    c3-0.303,5.378-2.741,5.56-5.809l0.064-1.092l5.459-0.615c-9.642,16.479-25.909,33.284-52.074,31.564    C228.105,275.432,211.725,257.013,202.42,239.974z M255.236,286.192c1.363,0.076,2.681,0.114,3.999,0.114    c13.582,0,24.777-4.204,34.012-10.518c1.282,0.846,2.629,1.607,4.072,2.149l11.735,4.404l-4.396,24.647    c-28.04,21.161-68.191,21.901-96.988,1.826l-4.721-26.472l11.735-4.404c1.278-0.479,2.474-1.148,3.632-1.872    C228.233,282.788,240.387,287.023,255.236,286.192z M191.14,286.769l4.756,26.674c0.008,0.056,0.02,0.107,0.029,0.162    l23.151,129.798l-56.095-89.982l13.119-11.544c2.181-1.916,2.727-5.09,1.333-7.643l-18.678-34.091    c-0.06-0.111-0.168-0.171-0.234-0.277c-0.057-0.089-0.053-0.202-0.114-0.291l-0.287-0.417L191.14,286.769z M60.093,384.377    c0-26.086,16.649-49.074,41.477-57.223l48.804-16.483l13.789,25.178l-13.33,11.733c-2.272,2.007-2.773,5.362-1.166,7.938    l69.983,112.273H60.093V384.377z M451.908,467.792H292.352l69.983-112.273c1.606-2.575,1.106-5.931-1.166-7.938l-13.316-11.733    l13.773-25.179l48.851,16.5c24.783,8.135,41.431,31.123,41.431,57.209v83.414H451.908z"/></g><path d="M188.945,90.754c2.015-1.575,2.863-4.226,2.121-6.68c-0.727-2.446-2.893-4.196-5.454-4.401   l-5.665-0.447c5.378-7.059,16.194-16.186,35.614-13.96c0.697,0.084,1.394,0.219,2.091,0.356l2.545,0.432   c1.455,0.197,2.863,0.485,4.15,0.75c4.15,0.856,8.059,1.666,11.452-0.75c1.363-0.969,2.272-2.446,2.53-4.09   c0.257-1.651-0.167-3.333-1.166-4.673l-9.694-13.005c9.437-0.243,24.313,0.462,41.204,5.476   c41.537,12.346,70.577,46.377,74.137,88.073c1.682,15.489-4.287,31.153-11.209,43.56c0.727-8.074,0.56-16.944-1.469-25.623   c-0.666-2.84-3.196-4.787-6.044-4.787c-0.287,0-0.576,0.016-0.879,0.06c-66.941,9.566-79.938-27.669-80.454-29.214   c-0.833-2.651-2.681-4.499-6.135-4.348c-2.787,0.098-5.165,2.037-5.817,4.749c-2.651,10.952,1.864,21.42,6.953,29.085   c-28.115-5.613-35.826-26.646-36.19-27.669c-0.727-2.143-2.575-3.719-4.818-4.098c-2.197-0.363-4.515,0.492-5.923,2.28   c-11.165,14.209-12.907,31.971-11.543,46.991c-6.666-11.937-12.421-26.903-11.316-41.87   C168.995,113,176.054,100.828,188.945,90.754z" style="fill:#5D4B43;"/><path d="M195.414,138.207c7.619,11.089,24.192,26.881,56.868,26.881c2.575,0,4.878-1.591,5.801-3.999   c0.879-2.34,0.273-4.984-1.529-6.704c13.346,7.597,33.206,12.899,62.488,9.694c1.734,13.264-1.042,26.765-3.437,35.211   l-11.389,2.379l0.102-1.764c0.167-2.908-1.697-5.536-4.499-6.333c0,0-20.42-5.809-29.827-8.877   c-10.649-3.461-25.843-1.152-28.267-0.704l-31.434,9.066c-2.445,0.714-3.93,2.918-4.188,5.395l-8.427-4.349   C195.561,188.473,185.875,160.217,195.414,138.207z" style="fill:#F0D0B4;"/><path d="M191.854,212.722c-0.442-2.784-0.813-5.541-1.14-8.242l15.913,8.214l0.943,15.84l-11.827-3.279   C193.186,218.378,191.993,213.333,191.854,212.722z" style="fill:#F0D0B4;"/><path d="M303.468,214.507l9.43-1.969c0.466,1.138,1.13,2.223,2.222,2.933   c0.989,0.638,2.094,0.915,3.198,0.947c-0.87,3.021-2.304,7.451-4.44,12.588l-11.325,1.275L303.468,214.507z" style="fill:#F0D0B4;"/><path d="M202.42,239.974l5.929,1.644l0.108,1.818c0.151,2.621,1.954,4.862,4.484,5.59   c5.801,1.674,19.86,5.733,27.206,8.135c4.363,1.424,9.513,1.864,14.225,1.864c6.741,0,12.604-0.909,14.028-1.166l27.798-8.105   c3-0.303,5.378-2.741,5.56-5.809l0.064-1.092l5.459-0.615c-9.642,16.479-25.909,33.284-52.074,31.564   C228.105,275.432,211.725,257.013,202.42,239.974z" style="fill:#F0D0B4;"/><path d="M218.873,209.561c0.059-0.518-0.02-1.015-0.091-1.524l-0.266-4.443l25.919-7.513   c3.817-0.622,15.134-1.734,21.708,0.417c6.666,2.173,18.784,5.703,25.495,7.643l-2.015,34.697l-23.935,6.931   c-3.787,0.628-15.058,1.758-21.692-0.409c-6.03-1.962-16.497-5.037-23.405-7.044L218.873,209.561z" style="fill:#E4E8EF;"/><path d="M353.595,299.575c-0.064,0.091-0.061,0.207-0.12,0.301c-0.065,0.105-0.17,0.164-0.229,0.275   l-18.663,34.091c-1.394,2.545-0.849,5.711,1.333,7.635l13.103,11.544l-56.095,89.982l27.936-156.633l33.021,12.39L353.595,299.575z   " style="fill:#AAB2BD;"/><path d="M191.14,286.769l4.756,26.674c0.008,0.056,0.02,0.107,0.029,0.162l23.151,129.798l-56.095-89.982   l13.119-11.544c2.181-1.916,2.727-5.09,1.333-7.643l-18.678-34.091c-0.06-0.111-0.168-0.171-0.234-0.277   c-0.057-0.089-0.053-0.202-0.114-0.291l-0.287-0.417L191.14,286.769z" style="fill:#AAB2BD;"/><path d="M60.093,384.377c0-26.086,16.649-49.074,41.477-57.223l48.804-16.483l13.789,25.178l-13.33,11.733   c-2.272,2.007-2.773,5.362-1.166,7.938l69.983,112.273H60.093V384.377z" style="fill:#FFFFFF;"/><path d="M451.908,467.792H292.352l69.983-112.273c1.606-2.575,1.106-5.931-1.166-7.938l-13.316-11.733   l13.773-25.179l48.851,16.5c24.783,8.135,41.431,31.123,41.431,57.209v83.414H451.908z" style="fill:#FFFFFF;"/><path d="M275.977,467.792h-39.952l-25.423-142.537c13.582,7.187,28.643,10.987,44.301,10.987   c16.67,0,32.561-4.271,46.736-12.325L275.977,467.792z" style="fill:#6FBBC6;"/><path d="M255.236,286.192c1.363,0.076,2.681,0.114,3.999,0.114c13.582,0,24.777-4.204,34.012-10.518   c1.282,0.846,2.629,1.607,4.072,2.149l11.735,4.404l-4.396,24.647c-28.04,21.161-68.191,21.901-96.988,1.826l-4.721-26.472   l11.735-4.404c1.278-0.479,2.474-1.148,3.632-1.872C228.233,282.788,240.387,287.023,255.236,286.192z" style="fill:#F0D0B4;"/></g></svg>