<?xml version="1.0" ?><!DOCTYPE svg  PUBLIC '-//W3C//DTD SVG 1.1//EN'  'http://www.w3.org/Graphics/SVG/1.1/DTD/svg11.dtd'><svg enable-background="new 0 0 100 100" height="100px" id="Layer_1" version="1.1" viewBox="0 0 100 100" width="100px" xml:space="preserve" xmlns="http://www.w3.org/2000/svg" xmlns:xlink="http://www.w3.org/1999/xlink"><g><defs><rect height="100" id="SVGID_1_" width="100"/></defs><path d="M38.338,16.5l11.938,40.703L62.217,16.5h8.643h20.507v4.174L80.789,41.726   c4.277,1.38,8.322,3.89,10.518,7.516C93.502,52.875,95,57.145,95,62.041c0,6.057-1.406,11.141-4.619,15.272   C87.172,81.436,83.117,83.5,78.01,83.5c-3.844,0-7.135-1.227-9.992-3.671c-2.854-2.451-4.938-5.765-6.309-9.952l6.758-2.803   c0.99,2.533,2.299,4.523,3.922,5.984c1.615,1.459,3.525,2.182,5.721,2.182c2.308,0,4.261-1.291,5.851-3.875   c1.59-2.592,2.39-5.698,2.39-9.332c0-4.016-0.857-8.348-2.556-10.544c-1.976-2.592-5.078-5.101-9.305-5.101h-5.685v-1.526   l13.916-20.891H68.809l-0.791,0.065l-16.92,55.976h-0.821L37.922,38.565L25.578,80.014h-0.826L5,16.5h8.641l11.938,40.768   l8.066-27.448L29.693,16.5H38.338z"/></g></svg>